<?xml version="1.0" encoding="UTF-8"?>
<svg width="154px" height="265px" viewBox="0 0 154 265" version="1.1" xmlns="http://www.w3.org/2000/svg" xmlns:xlink="http://www.w3.org/1999/xlink">
    <!-- Generator: Sketch 43.2 (39069) - http://www.bohemiancoding.com/sketch -->
    <title>logo_turquesa_blanco</title>
    <desc>Created with Sketch.</desc>
    <defs></defs>
    <g id="Page-1" stroke="none" stroke-width="1" fill="none" fill-rule="evenodd">
        <g id="logo_turquesa_blanco" fill-rule="nonzero" fill="#FFFFFF">
            <g id="Group" transform="translate(0.000000, 194.573724)">
                <path d="M41.3005563,0.586777305 L47.3942649,0.586777305 L40.109351,31.1185527 C39.4841722,33.7447885 37.1343973,35.5968044 34.4327682,35.5968044 C31.7199205,35.5968044 29.3640265,33.7295079 28.7500663,31.08901 L24.2555099,11.8017623 L23.4334967,11.8017623 L18.9389404,31.08901 C18.3229404,33.7295079 15.970106,35.5968044 13.2552185,35.5968044 C10.5546093,35.5968044 8.20585431,33.7458073 7.57863577,31.1185527 L0.295761589,0.586777305 L6.3894702,0.586777305 L12.9258013,30.0580749 L13.7478146,30.0580749 L19.096,7.15847937 C19.612053,4.9509335 21.5824371,3.39026887 23.8496027,3.39026887 C26.1137086,3.39026887 28.0810331,4.94482124 28.5991258,7.14625484 L34.0115629,30.0580749 L34.7632053,30.0580749 L41.3005563,0.586777305 Z" id="Shape"></path>
                <path d="M79.5680265,26.6372447 C79.5680265,28.2794062 79.856649,29.4132311 80.4400133,30.0407568 C81.0203179,30.6682825 81.9963312,30.9810267 83.3639735,30.9810267 L83.3639735,35.5957857 L80.9020133,35.5957857 C77.685351,35.5957857 75.6078808,34.1940399 74.6716423,31.3905484 C72.3912185,34.4232498 68.9787417,35.9380724 64.4382914,35.9380724 C60.9238278,35.9380724 58.073298,34.9916904 55.8816027,33.0999447 C53.6909271,31.2092179 52.5945696,28.748013 52.5945696,25.7153116 C52.5945696,24.3716324 52.8158808,23.1512171 53.2615629,22.0571219 C53.707245,20.9630267 54.3273245,20.0349813 55.1269006,19.2709483 C55.9244371,18.5089529 56.8382384,17.8355851 57.865245,17.2539013 C58.8922517,16.6732364 60.0283841,16.1893488 61.2716027,15.8012201 C62.5158411,15.4141101 63.7580398,15.0962724 65.0022782,14.8446508 C66.2454967,14.5940481 67.5284901,14.3780814 68.853298,14.1947135 C70.1770861,14.0113456 71.3846093,13.8534454 72.4819867,13.7159195 C73.1867152,13.6476659 73.7129669,13.5906181 74.0556423,13.5457948 C74.0097483,12.4048389 73.850649,11.3861283 73.5773245,10.4855882 C73.3019602,9.58504798 72.8909536,8.76906085 72.3443047,8.04068275 C71.7966357,7.31128596 71.0378543,6.75303255 70.0679602,6.36592252 C69.0980663,5.9788125 67.9405166,5.78423877 66.5942914,5.78423877 C65.7498411,5.78423877 64.972702,5.8636982 64.2669536,6.02363577 C63.5612053,6.18255462 62.9727417,6.38731544 62.5036027,6.63893696 C62.0344636,6.89055848 61.6142782,7.17477874 61.237947,7.49363516 C60.8616159,7.81249157 60.5709536,8.12523572 60.3649404,8.43390504 C60.1609669,8.7415556 59.9937086,9.0206823 59.8682649,9.27128514 C59.7438411,9.52188798 59.6571523,9.72766746 59.6112583,9.88658636 L59.5449669,10.1270021 L53.5206093,10.1270021 C53.6797086,8.89538093 54.0866357,7.70450825 54.7352715,6.55336527 C55.3839072,5.4022223 56.2528345,4.34785683 57.3369536,3.39128758 C58.4210729,2.43471833 59.7825961,1.67068538 61.4266225,1.10122615 C63.0696291,0.530748221 64.872755,0.245509254 66.8349801,0.245509254 C70.7369934,0.245509254 73.835351,1.41397031 76.1290331,3.748855 C78.4216953,6.08577711 79.5690464,9.68080679 79.5690464,14.5359816 L79.5690464,26.6372447 L79.5680265,26.6372447 Z M58.4129139,25.9200724 C58.4129139,27.9269324 59.3930066,29.3276594 61.3572715,30.1253097 C63.2746225,30.9015673 65.4183841,30.9117544 67.7916159,30.159946 C70.3249669,29.3398839 72.1158543,27.8922961 73.1663179,25.8171826 C73.6680928,24.7923598 73.9424371,23.6880775 73.989351,22.5012797 L73.989351,18.8756886 C72.3677616,19.0366449 71.0164371,19.1914889 69.9323179,19.339202 C68.8481987,19.486915 67.6386357,19.6855636 66.304649,19.9361664 C64.9676027,20.1867692 63.8855232,20.4781204 63.0522914,20.8081826 C62.2190596,21.1382449 61.4205033,21.5375795 60.6566225,22.0051676 C59.8917218,22.4727558 59.3267152,23.0299905 58.9616027,23.6809465 C58.5964901,24.3319026 58.4129139,25.0786175 58.4129139,25.9200724 L58.4129139,25.9200724 Z" id="Shape"></path>
                <path d="M110.508768,0.586777305 L116.977788,0.586777305 L107.039179,31.2061617 C106.189629,33.8232292 103.747047,35.5968044 100.992384,35.5968044 C98.2397617,35.5968044 95.7971787,33.824248 94.9466095,31.2061617 L85.008,0.586777305 L91.4443841,0.586777305 L100.582398,30.5704863 L101.40339,30.5704863 L110.508768,0.586777305 Z" id="Shape"></path>
                <path d="M137.548517,0.244490544 C139.715735,0.244490544 141.770768,0.64891865 143.709536,1.45777487 C145.648304,2.26764979 147.384119,3.4412044 148.912901,4.9794574 C150.440663,6.51872911 151.621669,8.55920641 152.454901,11.0998707 C153.289152,13.6415536 153.623669,16.509224 153.464569,19.6977881 L126.97147,19.6977881 C127.246834,22.9566434 128.335033,25.5329624 130.241166,27.424708 C132.145258,29.3154349 134.604159,30.2628357 137.616848,30.2628357 C141.541298,30.2628357 144.417324,28.7694059 146.241867,25.7835652 L152.711907,25.7835652 C151.388119,28.9059132 149.352464,31.3793426 146.601881,33.2028345 C143.852318,35.0263265 140.856967,35.9380724 137.616848,35.9380724 C135.427192,35.9380724 133.321166,35.4979895 131.301828,34.6229171 C129.28249,33.7447885 127.506901,32.5304855 125.979139,30.9810267 C124.449337,29.4315679 123.228556,27.5112984 122.315775,25.221237 C121.402994,22.9311756 120.947113,20.4618211 120.947113,17.818267 C120.947113,15.1736944 121.402994,12.7420322 122.315775,10.5181869 C123.228556,8.29637911 124.449337,6.44436324 125.979139,4.96315803 C127.506901,3.48195282 129.271271,2.32469758 131.268172,1.49444845 C133.264053,0.661143178 135.358861,0.244490544 137.548517,0.244490544 M137.479166,5.40833456 C134.878503,5.40833456 132.664371,6.23552756 130.839828,7.88787615 C129.014265,9.539206 127.81592,11.7793507 127.246834,14.6052538 L147.098556,14.6052538 C146.664093,11.8476042 145.596291,9.62477776 143.899232,7.93779297 C142.198093,6.25080823 140.05739,5.40833456 137.479166,5.40833456" id="Shape"></path>
            </g>
            <g id="Group" transform="translate(0.000000, 243.471833)">
                <polygon id="Shape" points="2.30490066 14.8314076 10.5760265 14.8314076 10.5760265 16.8545668 0.187655629 16.8545668 0.187655629 0.734490341 2.3038808 0.734490341 2.3038808 14.8314076"></polygon>
                <path d="M17.6110729,5.23107892 C18.3229404,5.23107892 18.9980928,5.36453001 19.6365298,5.63041348 C20.273947,5.89629693 20.844053,6.28238826 21.3468477,6.78868742 C21.8496423,7.29396788 22.2382119,7.96529817 22.5115364,8.80165959 C22.7869006,9.63700222 22.8960265,10.5793096 22.8440133,11.6285814 L14.1333245,11.6285814 C14.2230729,12.7002651 14.5810464,13.5468135 15.2082649,14.168227 C15.8344636,14.7906592 16.6432185,15.1013659 17.6335099,15.1013659 C18.9246622,15.1013659 19.8690596,14.6113661 20.4697616,13.6293291 L22.5972053,13.6293291 C22.160702,14.6561894 21.4916688,15.4691204 20.5870464,16.069141 C19.6824238,16.6691615 18.6982517,16.9686625 17.6335099,16.9686625 C16.9134834,16.9686625 16.2209934,16.8240055 15.5570596,16.5357104 C14.8931258,16.2474153 14.3087417,15.8480808 13.8069669,15.3377067 C13.3041722,14.8283515 12.9023444,14.1977696 12.6025033,13.4439237 C12.3026622,12.6910966 12.1527417,11.880203 12.1527417,11.0102241 C12.1527417,10.1402453 12.3026622,9.34055749 12.6025033,8.61014196 C12.9023444,7.87972647 13.3041722,7.27155624 13.8069669,6.78359387 C14.3087417,6.29665021 14.8890464,5.91565244 15.5458411,5.642638 C16.2016159,5.36758614 16.8900265,5.23107892 17.6110729,5.23107892 Z M17.5876159,6.92825077 C16.731947,6.92825077 16.0037616,7.2002465 15.4030596,7.74321925 C14.8033775,8.28721071 14.4086887,9.02373848 14.222053,9.95280253 L20.7492053,9.95280253 C20.6064238,9.04513138 20.2555894,8.31573461 19.6977218,7.76053733 C19.1388345,7.20534005 18.4351258,6.92825077 17.5876159,6.92825077 Z" id="Shape"></path>
                <path d="M30.6765961,14.8314076 L31.5536821,16.2362095 C30.9917351,16.7241719 30.3165828,16.9676437 29.5282252,16.9676437 C28.5379337,16.9676437 27.7526357,16.6365627 27.1702914,15.9723635 C26.587947,15.3081642 26.2993245,14.4453163 26.2993245,13.3807637 L26.2993245,7.05151476 L24.2952848,7.05151476 L24.2952848,5.54484178 L25.0040928,5.54484178 C25.4538543,5.54484178 25.8250861,5.39814746 26.1177881,5.10679623 C26.4104901,4.81442628 26.557351,4.43240981 26.557351,3.95972809 L26.557351,1.89174558 L28.2574702,1.89174558 L28.2574702,5.34313709 L31.0478278,5.34313709 L31.0478278,7.02910313 L28.2788874,7.02910313 L28.2788874,13.1892461 C28.2788874,13.8789132 28.4165696,14.3770627 28.6888742,14.6847132 C28.9642384,14.9923639 29.3181324,15.1451704 29.7525961,15.1451704 C30.099351,15.1451704 30.4063312,15.0412619 30.6765961,14.8314076 Z" id="Shape"></path>
                <path d="M34.9529006,0.734490341 C35.3720663,0.734490341 35.6963841,0.893409193 35.9258543,1.21226561 C36.1553245,1.53112203 36.2695497,1.95592435 36.2695497,2.48870999 C36.2695497,2.88600712 36.2063179,3.27209844 36.0778146,3.64596523 C35.9493113,4.02085073 35.7942914,4.33665101 35.6107152,4.59132866 C35.427139,4.84600632 35.2435629,5.07317878 35.0589669,5.27080863 C34.8753907,5.4694572 34.7203709,5.61411411 34.5928874,5.70376064 L34.4011523,5.85045496 L33.8279867,5.23311634 C34.3603577,4.75330365 34.7050729,4.10132887 34.8631523,3.27719199 C34.5408742,3.25478036 34.2695894,3.11929185 34.0472583,2.87276388 C33.825947,2.62521721 33.7158013,2.33692211 33.7158013,2.00685987 C33.7158013,1.64012406 33.8330861,1.3365483 34.0707152,1.09511389 C34.3063047,0.853679482 34.6000265,0.734490341 34.9529006,0.734490341 Z" id="Shape"></path>
                <path d="M45.9827682,13.5610754 C45.9827682,14.6021977 45.6074569,15.4314282 44.8568345,16.0446919 C44.1072318,16.6599931 43.1495762,16.966625 41.987947,16.966625 C40.6896556,16.966625 39.6351126,16.5978517 38.8243179,15.8592866 C38.0135232,15.1207214 37.6096556,14.2161064 37.6096556,13.1444228 L39.478053,13.1444228 C39.478053,13.8188093 39.7207815,14.3495575 40.209298,14.7356488 C40.6978146,15.1217401 41.2832185,15.3142765 41.9655099,15.3142765 C42.549894,15.3142765 43.0486093,15.1696195 43.4565563,14.8813244 C43.8655232,14.5930293 44.0705166,14.1814702 44.0705166,13.650722 C44.0705166,13.4255869 44.0256423,13.2208261 43.9348742,13.0374583 C43.8451258,12.8530716 43.7349801,12.7023024 43.6034172,12.5820946 C43.4728742,12.4629054 43.289298,12.3488098 43.0577881,12.2387891 C42.8252583,12.1308058 42.6131258,12.0452341 42.4213907,11.9800367 C42.2296556,11.9168766 41.980808,11.8435294 41.6738278,11.7610139 C41.3892848,11.6866479 41.1547152,11.6204318 40.971139,11.5644027 C40.7865431,11.5083736 40.5509536,11.425858 40.2623312,11.3178748 C39.9737086,11.2098914 39.7350596,11.1019081 39.5484238,10.9979996 C39.3597483,10.8920537 39.1578146,10.7524903 38.9405828,10.5762534 C38.7213113,10.4000165 38.5479337,10.2156299 38.4163709,10.0200374 C38.284808,9.82444497 38.1756821,9.59014155 38.0900133,9.31712711 C38.0043444,9.04411268 37.9604901,8.74563048 37.9604901,8.42371793 C37.9604901,7.43454994 38.3215232,6.65523633 39.0415497,6.08577711 C39.7615762,5.51529917 40.6702782,5.23107892 41.7656159,5.23107892 C42.9802782,5.23107892 43.9491523,5.56215986 44.6691788,6.22635917 C45.3892053,6.89055848 45.7502384,7.64847916 45.7502384,8.50215865 L43.8818411,8.50215865 C43.8818411,8.06003825 43.6788874,7.67598436 43.274,7.34999696 C42.8691126,7.02400957 42.365298,6.86101588 41.7656159,6.86101588 C41.2250861,6.86101588 40.7743047,7.00261665 40.4153113,7.28276207 C40.0542782,7.56392619 39.8747815,7.93677427 39.8747815,8.4013063 C39.8747815,8.60402969 39.9176159,8.78943505 40.0043047,8.95854101 C40.0909934,9.12662826 40.1970596,9.26721027 40.3245431,9.38028719 C40.4520265,9.49132664 40.6203047,9.59930999 40.8314172,9.7001623 C41.0404901,9.80101468 41.2352848,9.87945539 41.4168212,9.93548442 C41.5963179,9.99151353 41.8206887,10.056711 42.0919735,10.1320956 C42.4132318,10.2146111 42.6722782,10.2828648 42.8680928,10.3399126 C43.0628874,10.3959416 43.3147947,10.4804946 43.6217748,10.5925528 C43.928755,10.704611 44.1796423,10.8156504 44.3703577,10.9236338 C44.5620928,11.0326358 44.7711655,11.1772927 44.9996159,11.3565857 C45.2290861,11.5368975 45.4045033,11.7253589 45.529947,11.9250262 C45.653351,12.1236748 45.7604371,12.3640905 45.8501854,12.6442359 C45.937894,12.9254 45.9827682,13.2310132 45.9827682,13.5610754 Z" id="Shape"></path>
                <polygon id="Shape" points="68.1873245 0.734490341 71.3162782 0.734490341 71.3162782 16.8545668 69.3122384 16.8545668 69.3122384 3.80284666 69.0654304 3.80284666 64.7544503 15.7074987 62.1874437 15.7074987 57.911139 3.80284666 57.6520928 3.80284666 57.6520928 16.8545668 55.6490729 16.8545668 55.6490729 0.734490341 58.7770066 0.734490341 63.3460133 13.3807637 63.6162782 13.3807637"></polygon>
                <path d="M79.5211126,5.23107892 C80.2329801,5.23107892 80.9081324,5.36453001 81.5465696,5.63041348 C82.1839867,5.89629693 82.7551126,6.28238826 83.2568874,6.78868742 C83.7596821,7.29396788 84.1482517,7.96529817 84.4225961,8.80165959 C84.6969404,9.638021 84.8070861,10.5793096 84.7550729,11.6285814 L76.0433643,11.6285814 C76.1341324,12.7002651 76.492106,13.5468135 77.1183047,14.168227 C77.7455232,14.7906592 78.5532583,15.1013659 79.5445696,15.1013659 C80.834702,15.1013659 81.7790994,14.6113661 82.3798013,13.6293291 L84.507245,13.6293291 C84.0717616,14.6561894 83.4027285,15.4691204 82.498106,16.069141 C81.5934834,16.6691615 80.6082914,16.9686625 79.5445696,16.9686625 C78.8235232,16.9686625 78.132053,16.8240055 77.4670994,16.5357104 C76.8041854,16.2474153 76.2198013,15.8480808 75.7180265,15.3377067 C75.2142119,14.8283515 74.8134039,14.1977696 74.5125431,13.4439237 C74.212702,12.6910966 74.0627815,11.880203 74.0627815,11.0102241 C74.0627815,10.1402453 74.212702,9.34055749 74.5125431,8.61014196 C74.8134039,7.87972647 75.2142119,7.27155624 75.7180265,6.78359387 C76.2198013,6.29665021 76.800106,5.91565244 77.4569006,5.642638 C78.1116556,5.36758614 78.8010861,5.23107892 79.5211126,5.23107892 Z M79.4976556,6.92825077 C78.6430066,6.92825077 77.9138013,7.2002465 77.3141192,7.74321925 C76.7144371,8.28721071 76.3197483,9.02373848 76.1331126,9.95280253 L82.6602649,9.95280253 C82.5164636,9.04513138 82.166649,8.31573461 81.6077616,7.76053733 C81.049894,7.20534005 80.3461854,6.92825077 79.4976556,6.92825077 Z" id="Shape"></path>
                <path d="M92.5193245,5.23107892 C93.2322117,5.23107892 93.9073639,5.36453001 94.5447818,5.63041348 C95.1821989,5.89629693 95.7533245,6.28238826 96.2561192,6.78868742 C96.7578937,7.29396788 97.1464638,7.96529817 97.4218277,8.80165959 C97.6951522,9.63700222 97.806318,10.5793096 97.753285,11.6285814 L89.0415765,11.6285814 C89.1323446,12.7002651 89.490318,13.5468135 90.1175362,14.168227 C90.7437351,14.7906592 91.5514702,15.1013659 92.5427818,15.1013659 C93.8329138,15.1013659 94.7783309,14.6113661 95.3780129,13.6293291 L97.5054573,13.6293291 C97.0709936,14.6561894 96.4009404,15.4691204 95.496318,16.069141 C94.592715,16.6691615 93.6065032,16.9686625 92.5427818,16.9686625 C91.8227552,16.9686625 91.1302649,16.8240055 90.4663309,16.5357104 C89.8034171,16.2474153 89.219033,15.8480808 88.7162383,15.3377067 C88.2134436,14.8283515 87.8116159,14.1977696 87.5117745,13.4439237 C87.2109138,12.6910966 87.0620129,11.880203 87.0620129,11.0102241 C87.0620129,10.1402453 87.2109138,9.34055749 87.5117745,8.61014196 C87.8116159,7.87972647 88.2134436,7.27155624 88.7162383,6.78359387 C89.219033,6.29665021 89.7993373,5.91565244 90.4551127,5.642638 C91.1108873,5.36962356 91.7992979,5.23107892 92.5193245,5.23107892 Z M92.4968873,6.92825077 C91.6412182,6.92825077 90.913033,7.2002465 90.313351,7.74321925 C89.712649,8.28721071 89.3189799,9.02373848 89.1313245,9.95280253 L95.6584766,9.95280253 C95.5156957,9.04513138 95.1658808,8.31573461 94.6059734,7.76053733 C94.0491256,7.20534005 93.3443978,6.92825077 92.4968873,6.92825077 Z" id="Shape"></path>
                <path d="M105.585867,14.8314076 L106.463973,16.2362095 C105.899987,16.7241719 105.224834,16.9676437 104.438517,16.9676437 C103.447205,16.9676437 102.661907,16.6365627 102.080583,15.9723635 C101.499258,15.3081642 101.208596,14.4453163 101.208596,13.3807637 L101.208596,7.05151476 L99.2055765,7.05151476 L99.2055765,5.54484178 L99.9143841,5.54484178 C100.364146,5.54484178 100.736398,5.39814746 101.029099,5.10679623 C101.321801,4.81442628 101.467643,4.43240981 101.467643,3.95972809 L101.467643,1.89174558 L103.166742,1.89174558 L103.166742,5.34313709 L105.958119,5.34313709 L105.958119,7.02910313 L103.189179,7.02910313 L103.189179,13.1892461 C103.189179,13.8789132 103.325841,14.3770627 103.600185,14.6847132 C103.87351,14.9923639 104.227404,15.1451704 104.663907,15.1451704 C105.008622,15.1451704 105.316622,15.0412619 105.585867,14.8314076 Z" id="Shape"></path>
                <path d="M124.672688,16.8545668 L123.312185,12.6381237 L116.716702,12.6381237 L115.366398,16.8545668 L113.126768,16.8545668 L118.561643,0.734490341 L121.466225,0.734490341 L126.914357,16.8545668 L124.672688,16.8545668 Z M119.879312,2.90434392 L117.369417,10.6832181 L122.669669,10.6832181 L120.160795,2.90434392 L119.879312,2.90434392 Z" id="Shape"></path>
                <path d="M134.734702,5.23107892 C136.219629,5.23107892 137.478146,5.78933233 138.510252,6.90685785 C139.542357,8.02336467 140.058411,9.42103559 140.058411,11.098852 C140.058411,12.7776871 139.542357,14.1763767 138.510252,15.2918648 C137.478146,16.4093903 136.219629,16.9676437 134.734702,16.9676437 C133.264053,16.9676437 132.104464,16.3523426 131.257973,15.1237775 L131.257973,21.4642322 L129.298808,21.4642322 L129.298808,5.34415579 L130.637894,5.34415579 L131.076437,6.79378098 L131.43747,6.79378098 C132.255404,5.75164004 133.354821,5.23107892 134.734702,5.23107892 Z M134.577643,15.0789542 C135.492464,15.0789542 136.298159,14.7132372 136.991669,13.9828216 C137.686199,13.2513875 138.032953,12.2907433 138.032953,11.098852 C138.032953,9.90797925 137.686199,8.94631647 136.991669,8.21590097 C136.297139,7.48446676 135.492464,7.11976836 134.577643,7.11976836 C134.261483,7.11976836 133.953483,7.16662906 133.648543,7.26035043 C133.345643,7.35509051 133.046821,7.50382226 132.754119,7.70960181 C132.461417,7.91640005 132.20645,8.16904028 131.989218,8.46854119 C131.771987,8.76906085 131.59453,9.14496507 131.459907,9.59829121 C131.324265,10.0516174 131.257973,10.5528231 131.257973,11.098852 C131.257973,11.6458995 131.324265,12.1460864 131.459907,12.6004314 C131.59453,13.0537576 131.771987,13.4296618 131.989218,13.7301814 C132.20645,14.0296824 132.461417,14.2823225 132.754119,14.4881021 C133.046821,14.6949004 133.345643,14.8446508 133.648543,14.9373535 C133.953483,15.0320936 134.261483,15.0789542 134.577643,15.0789542 Z" id="Shape"></path>
                <path d="M148.15106,5.23107892 C149.635987,5.23107892 150.894503,5.78933233 151.92661,6.90685785 C152.958715,8.02336467 153.474768,9.42103559 153.474768,11.098852 C153.474768,12.7776871 152.958715,14.1763767 151.92661,15.2918648 C150.894503,16.4093903 149.635987,16.9676437 148.15106,16.9676437 C146.680411,16.9676437 145.520821,16.3523426 144.674331,15.1237775 L144.674331,21.4642322 L142.715166,21.4642322 L142.715166,5.34415579 L144.054252,5.34415579 L144.492795,6.79378098 L144.853828,6.79378098 C145.670742,5.75164004 146.770159,5.23107892 148.15106,5.23107892 Z M147.99298,15.0789542 C148.907801,15.0789542 149.713497,14.7132372 150.407006,13.9828216 C151.101536,13.2513875 151.448291,12.2907433 151.448291,11.098852 C151.448291,9.90797925 151.101536,8.94631647 150.407006,8.21590097 C149.712477,7.48446676 148.907801,7.11976836 147.99298,7.11976836 C147.676821,7.11976836 147.368821,7.16662906 147.063881,7.26035043 C146.76098,7.35509051 146.462159,7.50382226 146.169457,7.70960181 C145.876755,7.91640005 145.621788,8.16904028 145.404556,8.46854119 C145.187324,8.76906085 145.009867,9.14496507 144.875245,9.59829121 C144.739602,10.0516174 144.673312,10.5528231 144.673312,11.098852 C144.673312,11.6458995 144.739602,12.1460864 144.875245,12.6004314 C145.009867,13.0537576 145.187324,13.4296618 145.404556,13.7301814 C145.621788,14.0296824 145.876755,14.2823225 146.169457,14.4881021 C146.462159,14.6949004 146.76098,14.8446508 147.063881,14.9373535 C147.368821,15.0320936 147.677841,15.0789542 147.99298,15.0789542 Z" id="Shape"></path>
            </g>
            <path d="M149.76551,73.2137119 C145.29849,69.1521128 138.381748,69.4750441 134.312477,73.9369965 L123.394795,85.9129585 C120.233205,73.9716326 112.552583,63.8517615 102.295775,57.4909326 L102.295775,14.956709 C102.295775,8.92288609 97.3993905,4.03205655 91.358715,4.03205655 C85.3170201,4.03205655 80.4185961,8.92288609 80.4185961,14.956709 L80.3788212,50.3619958 C79.2916423,50.2876299 78.4257748,50.1073181 77.3192185,50.1073181 L76.5543179,50.1704782 C75.3559735,50.1704782 74.6084106,50.0838878 73.4314834,50.1704782 L62.2129404,8.74461178 C60.4240928,2.98176592 53.430861,-1.27950051 47.6584106,0.508336588 C41.8890199,2.29515498 38.8375762,9.00743907 40.6264238,14.770285 L52.9709006,56.2195818 C51.2157086,57.2647788 48.772106,58.8509112 47.169894,60.1029065 L29.6628477,31.1542075 C26.1993775,26.210405 20.4840398,25.2090125 15.2143841,27.7588451 C9.77747021,30.3901745 8.09570861,39.0298591 11.5601987,43.9736616 L32.3818146,78.3123585 C31.6169139,80.7317962 30.3930729,82.3107975 29.8321457,85.4433325 L19.3846225,73.9369965 C15.3173907,69.4750441 8.40064901,69.1521128 3.93362914,73.2137119 C-0.532370861,77.2763298 -0.855668873,84.1862437 3.21054304,88.6471774 L76.8500795,169.423797 L150.489616,88.6471774 C154.553788,84.1872625 154.23151,77.2763298 149.76551,73.2137119 M50.5905298,98.1211859 L50.5905298,98.1211859 C50.5905298,83.7920028 62.2190596,72.1746271 76.5655364,72.1746271 L77.1295232,72.1746271 C91.4749799,72.1746271 103.106569,83.7920028 103.106569,98.1211859 C103.106569,104.584905 100.692543,110.815339 96.334649,115.593092 L76.8490596,136.967677 L57.3634702,115.593092 C53.0055762,110.815339 50.5905298,104.584905 50.5905298,98.1211859" id="Shape"></path>
        </g>
    </g>
</svg>